<svg width="1024" height="1024" viewBox="0 0 1024 1024" fill="none" xmlns="http://www.w3.org/2000/svg">
<g clip-path="url(#clip0_102_195)">
<rect width="1024" height="1024" rx="163.84" fill="#612AFF"/>
<path d="M505.958 507.487C513.462 512.568 523.466 511.63 529.875 505.299C536.284 498.968 537.222 488.885 532.064 481.46L444.524 353.825L522.372 328.501C530.11 326 535.346 318.809 535.346 310.681C535.346 302.552 530.11 295.361 522.372 292.86L441.789 266.755L483.135 188.126C486.965 180.857 485.637 171.947 479.775 166.163C473.913 160.379 465.081 158.972 457.812 162.802L379.183 204.149L353.077 123.566C350.576 115.828 343.386 110.591 335.257 110.591C327.128 110.591 319.938 115.828 317.436 123.566L291.331 204.149L212.702 162.802C205.433 158.972 196.523 160.301 190.739 166.163C184.955 172.025 183.548 180.857 187.378 188.126L228.725 266.755L148.142 292.86C140.404 295.361 135.167 302.552 135.167 310.681C135.167 318.809 140.404 326 148.142 328.501L231.382 355.466L211.295 410.491C208.794 417.369 210.514 425.029 215.672 430.187C220.831 435.346 228.49 437.065 235.368 434.564L290.393 414.477L317.436 497.795C319.938 505.533 327.128 510.77 335.257 510.77C343.385 510.77 350.576 505.533 353.077 497.795L378.323 419.948L505.958 507.487Z" fill="black" fill-opacity="0.2"/>
<path d="M764.008 896.609C771.511 901.69 781.516 900.752 787.925 894.421C794.334 888.09 795.272 878.007 790.113 870.582L702.574 742.947L780.422 717.623C788.159 715.122 793.396 707.931 793.396 699.803C793.396 691.674 788.159 684.483 780.422 681.982L699.839 655.877L741.185 577.248C745.015 569.979 743.686 561.069 737.824 555.285C731.962 549.501 723.13 548.094 715.861 551.924L637.233 593.271L611.127 512.688C608.626 504.95 601.435 499.713 593.307 499.713C585.178 499.713 577.987 504.95 575.486 512.688L549.381 593.271L470.752 551.924C463.483 548.094 454.573 549.423 448.789 555.285C443.005 561.147 441.598 569.979 445.428 577.248L486.775 655.877L406.192 681.982C398.454 684.483 393.217 691.674 393.217 699.803C393.217 707.931 398.454 715.122 406.192 717.623L489.432 744.588L469.345 799.613C466.844 806.491 468.563 814.151 473.722 819.309C478.881 824.468 486.54 826.187 493.418 823.686L548.443 803.599L575.486 886.918C577.987 894.655 585.178 899.892 593.307 899.892C601.435 899.892 608.626 894.655 611.127 886.918L636.373 809.07L764.008 896.609Z" fill="black" fill-opacity="0.2"/>
<path d="M1732.47 511.385C1732.47 467.938 1726.57 428.777 1714.92 393.802L1714.89 393.719L1714.86 393.635C1703.71 358.049 1687.6 328.057 1666.67 303.463L1666.59 303.37C1646.15 278.742 1621.57 259.655 1592.77 246.039C1564.12 232.496 1531.92 225.632 1495.98 225.632C1460.61 225.632 1428.37 232.487 1399.12 246.068L1390.89 228.335C1422.93 213.458 1458.01 206.084 1495.98 206.083C1534.46 206.083 1569.57 213.449 1601.12 228.365C1632.48 243.189 1659.32 264.021 1681.56 290.792L1682.62 292.055C1704.93 318.642 1721.85 350.597 1733.5 387.731C1745.89 424.967 1752.02 466.219 1752.02 511.385C1752.02 556.565 1745.89 598.08 1733.5 635.842L1733.5 635.843C1721.67 673.049 1704.39 705.154 1681.56 731.978C1659.32 758.749 1632.48 779.581 1601.12 794.406C1569.57 809.321 1534.46 816.687 1495.98 816.687C1458.01 816.687 1422.93 809.313 1390.89 794.435L1395 785.569L1399.12 776.704C1428.37 790.284 1460.61 797.138 1495.98 797.138C1531.92 797.138 1564.12 790.274 1592.77 776.732C1621.57 763.116 1646.15 744.028 1666.59 719.401L1666.67 719.307C1687.62 694.688 1703.73 664.95 1714.87 629.917L1714.9 629.831C1726.57 594.281 1732.47 554.83 1732.47 511.385ZM373.796 205.261C397.634 205.261 417.225 209.732 430.704 220.462C440.363 227.839 448.683 237.041 455.716 247.94C468.378 236.844 482.343 227.591 497.594 220.196L497.645 220.17L497.696 220.147C517.655 210.754 539.058 206.082 561.785 206.082C598.945 206.082 630.687 212.543 656.534 226.034L657.75 226.661C683.183 239.893 703.74 257.98 719.233 280.901C735.356 303.949 746.49 330.599 752.75 360.69C759.487 389.914 762.832 421.002 762.832 453.92C762.832 479.264 760.017 506.431 754.447 535.394C748.803 564.741 739.196 592.185 725.61 617.683C712.355 643.595 694.162 665.257 671.084 682.565L671.021 682.612L670.957 682.659C647.066 699.979 617.575 708.326 583.128 708.326C558.595 708.326 536.593 704.217 517.352 695.725L517.379 699.297C517.668 737.117 506.632 767.151 482.744 787.472C459.175 807.52 424.735 816.686 381.185 816.686C337.128 816.686 302.795 805.967 280.505 782.439C258.641 759.36 248.274 727.962 248.274 689.521C248.274 661.587 250.786 636.222 255.9 613.494C260.872 591.397 266.405 570.634 272.506 551.214C278.508 531.574 283.96 513.037 288.863 495.603C293.548 478.945 295.886 462.049 295.886 444.89C295.886 435.284 294.613 427.799 292.433 422.13L292.277 421.724L292.158 421.306C289.961 413.616 287.492 404.836 284.75 394.968L284.732 394.904L284.715 394.839C281.881 384.07 279.09 370.636 276.327 354.609L276.298 354.447L276.276 354.284C275.207 346.537 272.632 335.053 270.042 320.589C267.557 306.715 265.234 290.886 265.234 276.574C265.234 262.339 270.2 252.78 277.561 245.167C280.99 241.621 284.86 238.575 288.476 235.814C292.239 232.941 295.742 230.365 299.299 227.316L299.364 227.261L299.429 227.207C317.676 212.106 342.936 205.261 373.796 205.261ZM1769.29 682.956C1769.29 671.708 1770.76 659.754 1773.63 647.131L1783.17 649.298L1792.7 651.464C1790.09 662.922 1788.84 673.407 1788.84 682.956C1788.84 700.393 1791.91 716.029 1797.9 730.001L1788.91 733.852L1779.93 737.702C1772.78 721.028 1769.29 702.732 1769.29 682.956ZM462.455 657.429C461.863 657.429 461.028 657.567 459.87 658.167C459.868 658.169 459.867 658.17 459.867 658.171C459.863 658.177 459.855 658.193 459.84 658.224C459.901 658.325 459.984 658.456 460.104 658.616C468.829 668.334 477.669 676.125 486.595 682.099C494.093 686.659 500.154 688.837 504.946 689.426C488.256 680.038 474.061 669.394 462.497 657.43C462.483 657.43 462.469 657.429 462.455 657.429ZM1493.51 369.444C1498.68 369.444 1503.25 371.418 1507.08 374.287C1513.17 377.752 1516.27 383.646 1517.14 390.085C1520.43 411.505 1522.91 430.254 1524.58 446.313L1524.88 449.266C1526.36 464.036 1527.09 479.497 1527.09 495.644C1527.64 512.364 1527.36 531.741 1526.26 553.74L1526.26 553.752C1525.17 575.063 1523.8 602.382 1522.16 635.712C1522.03 642.323 1518.33 647.286 1513.32 650.292C1509.32 652.691 1504.86 654.147 1500.08 654.147C1495.08 654.147 1490.32 652.872 1486.02 650.292L1485.59 650.032L1485.19 649.73C1480.53 646.242 1477.99 641.156 1477.99 635.342C1477.99 601.916 1478.27 574.461 1478.82 553.001L1478.82 552.882L1478.82 552.763C1479.91 530.985 1480.45 512 1480.45 495.788V495.63L1480.46 495.473C1481 478.81 1480.73 463.005 1479.66 448.05L1479.66 448.027C1478.59 432.505 1476.44 414.181 1473.18 393.019L1473.12 392.603L1473.09 392.183C1472.73 386.809 1473.55 380.698 1477.71 375.896C1482.01 370.933 1488.05 369.444 1493.51 369.444ZM1493.51 388.994C1493.14 388.994 1492.84 389.012 1492.6 389.037C1492.57 389.392 1492.55 389.883 1492.58 390.531C1495.84 411.845 1498.05 430.565 1499.16 446.658C1500.27 462.293 1500.55 478.713 1500 495.912C1500 512.477 1499.45 531.718 1498.36 553.616C1497.82 574.585 1497.55 601.441 1497.54 634.207C1498.31 634.464 1499.14 634.598 1500.08 634.598C1500.67 634.598 1501.51 634.458 1502.68 633.852C1504.3 600.923 1505.65 573.889 1506.74 552.751C1507.82 531.053 1508.09 512.186 1507.55 496.114L1507.54 495.951V495.788C1507.54 479.136 1506.74 463.341 1505.14 448.396L1505.14 448.377L1505.13 448.36C1503.51 432.694 1501.07 414.254 1497.81 393.019L1497.79 392.882L1497.77 392.745C1497.65 391.791 1497.45 391.374 1497.39 391.267C1497.38 391.261 1497.37 391.253 1497.35 391.246L1496.42 390.783L1495.62 390.135C1494.86 389.531 1494.31 389.246 1493.99 389.116C1493.68 388.995 1493.55 388.994 1493.51 388.994ZM496.933 388.993C496.56 388.993 496.259 389.01 496.023 389.035C495.988 389.378 495.967 389.847 495.992 390.461C499.811 412.944 502.036 432.641 502.598 449.49C503.149 466.03 503.424 483.652 503.424 502.354C503.424 504.517 503.822 505.686 504.21 506.342C505.686 507.151 506.791 507.355 507.605 507.355C509.097 507.355 510.085 507.042 510.854 506.564C511.281 505.962 511.786 504.786 511.786 502.354C511.786 484.031 510.977 466.846 509.372 450.789C507.759 434.662 505.059 415.468 501.253 393.176L501.216 392.96L501.189 392.744C501.069 391.787 500.867 391.371 500.808 391.265C500.798 391.259 500.786 391.251 500.771 391.244L499.844 390.781L499.036 390.134C498.28 389.53 497.733 389.244 497.407 389.114C497.105 388.993 496.965 388.993 496.933 388.993ZM1799.51 314.367C1799.51 348.072 1800.87 376.116 1803.54 398.586L1784.13 400.897C1781.33 377.397 1779.96 348.524 1779.96 314.367H1799.51Z" fill="white" stroke="#612AFF" stroke-width="19.5496"/>
</g>
<defs>
<clipPath id="clip0_102_195">
<rect width="1024" height="1024" rx="163.84" fill="white"/>
</clipPath>
</defs>
</svg>
